<svg width="70" height="70" viewBox="0 0 70 70" fill="none" xmlns="http://www.w3.org/2000/svg">
<rect x="1.125" y="0.5" width="68" height="69.0036" rx="11.5" fill="#EDFCEA"/>
<rect x="1.125" y="0.5" width="68" height="69.0036" rx="11.5" stroke="#4FE531"/>
<path d="M52.3145 50.1297C51.7036 49.366 50.9211 48.756 50.046 48.3454C50.8303 47.4281 51.3065 46.2386 51.3065 44.9385C51.3065 42.0464 48.9535 39.6934 46.0614 39.6934C43.1675 39.6934 40.8136 42.0464 40.8136 44.9385C40.8136 46.2377 41.2889 47.4263 42.0732 48.3436C41.5434 48.5903 41.0505 48.9096 40.6088 49.2923C40.1668 48.9105 39.6744 48.5916 39.1479 48.3445C39.9323 47.4272 40.4084 46.2377 40.4084 44.9376C40.4084 42.9898 39.3402 41.2882 37.7598 40.3834V33.2049H39.9511C40.2422 33.2049 40.5046 33.0297 40.616 32.7611C40.7274 32.4925 40.6654 32.1825 40.4596 31.9768L35.6719 27.189C35.605 27.1221 35.5257 27.0691 35.4384 27.0329C35.351 26.9967 35.2574 26.9781 35.1629 26.9781C35.0684 26.9781 34.9748 26.9967 34.8875 27.0329C34.8001 27.0691 34.7208 27.1221 34.6539 27.189L29.8662 31.9768C29.7655 32.0774 29.6968 32.2056 29.669 32.3452C29.6412 32.4848 29.6554 32.6296 29.7098 32.7611C29.7644 32.8925 29.8566 33.0048 29.975 33.0838C30.0933 33.1628 30.2324 33.205 30.3747 33.2049H32.566V40.3843C30.9838 41.2891 29.9147 42.9907 29.9147 44.9394C29.9147 46.2386 30.3909 47.4281 31.1752 48.3463C30.6472 48.5944 30.1557 48.9136 29.7143 49.295C29.2731 48.9119 28.7805 48.5922 28.2508 48.3454C29.0351 47.4281 29.5095 46.2386 29.5095 44.9403C29.5095 42.0482 27.1565 39.6952 24.2644 39.6952C21.3705 39.6952 19.0166 42.0482 19.0166 44.9403C19.0166 46.2395 19.4928 47.429 20.2771 48.3472C19.395 48.7611 18.6191 49.3711 18.0086 50.1306C17.1164 51.2446 16.625 52.6408 16.625 54.063V56.505C16.625 57.3316 17.297 58.0036 18.1236 58.0036H52.1959C53.0225 58.0036 53.6945 57.3316 53.6945 56.505V54.063C53.6981 52.6399 53.2067 51.2437 52.3145 50.1297ZM46.0614 41.1327C48.1602 41.1327 49.8672 42.8398 49.8672 44.9385C49.8672 47.0391 48.1602 48.747 46.0614 48.747C43.9609 48.747 42.2529 47.0382 42.2529 44.9385C42.2529 42.8407 43.9609 41.1327 46.0614 41.1327ZM33.2865 31.7665H32.1123L35.1634 28.7154L38.2145 31.7665H37.0402C36.6431 31.7665 36.3205 32.0882 36.3205 32.4862V39.8255C35.9477 39.7411 35.5605 39.6952 35.1634 39.6952C34.7654 39.6952 34.3781 39.7411 34.0062 39.8255V32.4871C34.0062 32.0882 33.6845 31.7665 33.2865 31.7665ZM35.1634 41.1327C37.2621 41.1327 38.9691 42.8398 38.9691 44.9385C38.9691 47.0391 37.2621 48.747 35.1634 48.747C33.0628 48.747 31.3549 47.0382 31.3549 44.9385C31.3549 42.8407 33.0637 41.1327 35.1634 41.1327ZM24.2662 41.1327C26.365 41.1327 28.072 42.8398 28.072 44.9385C28.072 47.0391 26.365 48.747 24.2662 48.747C22.1657 48.747 20.4577 47.0382 20.4577 44.9385C20.4577 42.8407 22.1657 41.1327 24.2662 41.1327ZM18.0661 56.5041V54.0621C18.0661 51.9382 19.5009 50.0273 21.517 49.4073C22.3175 49.9015 23.2591 50.1872 24.2662 50.1872C25.2734 50.1872 26.2149 49.9015 27.0145 49.4064C27.6478 49.6004 28.2345 49.9221 28.7386 50.3516C27.9543 51.4261 27.5248 52.7325 27.5248 54.0612V56.5032C27.5248 56.523 27.5266 56.5427 27.5275 56.5634H18.1263C18.0948 56.5643 18.0661 56.5346 18.0661 56.5041ZM39.9215 56.5643H39.1973V54.2814C39.1973 53.8843 38.8757 53.5617 38.4777 53.5617C38.0797 53.5617 37.758 53.8834 37.758 54.2814V56.5643H32.5705V54.2814C32.5705 53.8843 32.2488 53.5617 31.8508 53.5617C31.4528 53.5617 31.1312 53.8834 31.1312 54.2814V56.5643H29.0243C28.9938 56.5643 28.9641 56.5355 28.9641 56.5041V54.0621C28.9641 51.9382 30.3989 50.0273 32.415 49.4073C33.2155 49.9015 34.1571 50.1872 35.1643 50.1872C36.1714 50.1872 37.1121 49.9015 37.9117 49.4073C39.9278 50.0282 41.3617 51.9382 41.3617 54.0621V56.5041C41.3617 56.5355 41.3347 56.5643 41.3042 56.5643H39.9215ZM52.2588 56.5041C52.2588 56.5355 52.231 56.5643 52.1986 56.5643H42.7974C42.7983 56.5445 42.8001 56.5248 42.8001 56.5041V54.0621C42.8001 52.7334 42.3706 51.4261 41.5863 50.3516C42.0911 49.9226 42.678 49.601 43.3113 49.4064C44.1118 49.9006 45.0534 50.1872 46.0605 50.1872C47.0677 50.1872 48.0083 49.9015 48.8079 49.4073C50.824 50.0282 52.2579 51.9382 52.2579 54.0621V56.5041H52.2588ZM35.1634 25.9824C39.0177 25.9824 42.1532 22.8468 42.1532 18.9925C42.1532 15.1373 39.0177 12 35.1634 12C31.3082 12 28.1708 15.1364 28.1708 18.9925C28.1717 22.8468 31.3082 25.9824 35.1634 25.9824ZM35.1634 13.4393C38.2243 13.4393 40.7139 15.9307 40.7139 18.9925C40.7139 22.0535 38.2243 24.5431 35.1634 24.5431C32.1015 24.5431 29.6101 22.0535 29.6101 18.9925C29.6101 15.9307 32.1015 13.4393 35.1634 13.4393ZM31.4384 19.201C31.1572 18.9198 31.1572 18.4643 31.4384 18.183C31.7196 17.9018 32.1752 17.9018 32.4564 18.183L34.291 20.0177L37.8695 16.4392C38.1507 16.158 38.6062 16.158 38.8874 16.4392C39.1686 16.7204 39.1686 17.1759 38.8874 17.4571L34.7995 21.545C34.6593 21.6852 34.4752 21.7561 34.291 21.7561C34.1068 21.7561 33.9226 21.6861 33.7825 21.545L31.4384 19.201Z" fill="#4FE531"/>
</svg>
