<svg width="70" height="70" viewBox="0 0 70 70" fill="none" xmlns="http://www.w3.org/2000/svg">
<rect x="0.875" y="0.501831" width="68" height="69" rx="11.5" fill="#E7EFF8"/>
<rect x="0.875" y="0.501831" width="68" height="69" rx="11.5" stroke="#0B5EB6"/>
<g clip-path="url(#clip0_1004_2596)">
<path d="M39.2051 46.8593C38.8061 46.8593 38.4825 47.1829 38.4825 47.582V51.5566H35.4128C35.4065 51.5566 35.4003 51.5574 35.3939 51.5575C35.3876 51.5574 35.3814 51.5566 35.375 51.5566H32.3054V40.4364C32.3054 40.0374 31.9818 39.7137 31.5828 39.7137C31.1837 39.7137 30.8601 40.0374 30.8601 40.4364V52.2792C30.8601 52.6783 31.1837 53.0019 31.5828 53.0019H35.375C35.3814 53.0019 35.3876 53.0011 35.394 53.0009C35.4003 53.0011 35.4065 53.0019 35.4129 53.0019H39.2051C39.6042 53.0019 39.9278 52.6783 39.9278 52.2792V47.582C39.9278 47.1829 39.6042 46.8593 39.2051 46.8593ZM39.716 44.4211C39.5816 44.2866 39.3952 44.2093 39.2051 44.2093C39.0151 44.2093 38.8286 44.2866 38.6942 44.4211C38.5598 44.5555 38.4825 44.7419 38.4825 44.932C38.4825 45.122 38.5597 45.3085 38.6942 45.4428C38.8286 45.578 39.0151 45.6546 39.2051 45.6546C39.3952 45.6546 39.5816 45.578 39.716 45.4428C39.8504 45.3085 39.9278 45.122 39.9278 44.932C39.9278 44.7419 39.8505 44.5555 39.716 44.4211ZM39.2051 39.7137C38.8061 39.7137 38.4825 40.0374 38.4825 40.4364V42.138C38.4825 42.537 38.8061 42.8606 39.2051 42.8606C39.6042 42.8606 39.9278 42.537 39.9278 42.138V40.4364C39.9278 40.0374 39.6042 39.7137 39.2051 39.7137Z" fill="#0B5EB6"/>
<path d="M42.0877 26.4239C41.2625 25.5909 39.9128 25.5599 39.0796 26.3552C38.6608 26.7547 38.4266 27.2932 38.4198 27.8713C38.413 28.4495 38.6345 28.9931 39.0433 29.402C40.0668 30.4254 40.6304 31.7863 40.6304 33.2337L40.6303 33.2773C40.6195 34.6635 39.8109 35.8671 38.6416 36.4605C39.0026 35.8657 39.1931 35.1831 39.1923 34.4873V33.9247C39.1923 31.8199 37.4799 30.1075 35.3751 30.1075C33.2703 30.1075 31.5579 31.8199 31.5579 33.9247V34.4873C31.557 35.1831 31.7476 35.8658 32.1086 36.4606C30.9393 35.8674 30.1305 34.6642 30.1198 33.2797L30.1196 33.2338C30.1196 31.7863 30.6833 30.4255 31.7068 29.402C32.1156 28.9931 32.3371 28.4495 32.3303 27.8713C32.3235 27.2932 32.0892 26.7548 31.6705 26.3552C30.8372 25.5599 29.4877 25.5908 28.6624 26.4239C26.8559 28.2476 25.861 30.6661 25.861 33.2337C25.861 35.8187 26.8677 38.2488 28.6956 40.0767C28.9778 40.3588 29.4353 40.3588 29.7176 40.0767C29.9998 39.7945 29.9998 39.3369 29.7176 39.0546C28.1627 37.4997 27.3064 35.4325 27.3064 33.2336C27.3064 31.0494 28.1526 28.9923 29.6893 27.441C29.9642 27.1636 30.4052 27.1455 30.6728 27.4008C30.7391 27.4636 30.7921 27.5391 30.8286 27.6228C30.8651 27.7066 30.8843 27.7968 30.8851 27.8881C30.8865 27.9793 30.8695 28.0699 30.8351 28.1544C30.8007 28.2389 30.7496 28.3156 30.6849 28.38C29.3884 29.6764 28.6745 31.4002 28.6745 33.2337L28.6746 33.2885C28.6962 36.0513 30.9736 38.2991 33.7515 38.2991H35.173C35.3077 38.3062 35.4426 38.3062 35.5773 38.2991H36.9988C39.7766 38.2991 42.0541 36.0513 42.0757 33.2859L42.0758 33.2337C42.0758 31.4002 41.3618 29.6764 40.0654 28.38C40.0007 28.3156 39.9496 28.2389 39.9152 28.1544C39.8808 28.0699 39.8638 27.9794 39.8652 27.8881C39.866 27.7968 39.8852 27.7066 39.9217 27.6228C39.9582 27.5391 40.0111 27.4636 40.0775 27.4008C40.345 27.1456 40.7863 27.1636 41.061 27.441C42.5977 28.9923 43.4439 31.0494 43.4439 33.2336C43.4439 35.4325 42.5875 37.4997 41.0327 39.0546C40.7505 39.3368 40.7505 39.7944 41.0327 40.0767C41.0997 40.1439 41.1794 40.1971 41.2671 40.2335C41.3547 40.2698 41.4487 40.2884 41.5437 40.2883C41.6386 40.2884 41.7326 40.2698 41.8203 40.2335C41.908 40.1971 41.9876 40.1439 42.0547 40.0767C43.8825 38.2488 44.8892 35.8186 44.8892 33.2337C44.889 30.6661 43.8942 28.2476 42.0877 26.4239ZM37.7469 34.4873C37.7469 35.7439 36.7645 36.7748 35.5276 36.8538H35.2224C33.9854 36.7748 33.003 35.744 33.003 34.4873V33.9247C33.003 32.6168 34.0671 31.5528 35.375 31.5528C36.6829 31.5528 37.7469 32.6168 37.7469 33.9247V34.4873ZM24.8687 44.3601C25.5519 43.7261 25.9805 42.8214 25.9805 41.8183V41.319C25.9805 39.4062 24.4244 37.8502 22.5117 37.8502C20.599 37.8502 19.043 39.4062 19.043 41.319V41.8183C19.043 42.8215 19.4716 43.7261 20.1547 44.3601C18.2208 45.2542 16.875 47.2115 16.875 49.4783V52.2792C16.875 52.6783 17.1986 53.0019 17.5977 53.0019H27.4258C27.8248 53.0019 28.1484 52.6783 28.1484 52.2792V49.4783C28.1484 47.2115 26.8026 45.2542 24.8687 44.3601ZM20.4883 41.3189C20.4883 40.2032 21.396 39.2955 22.5117 39.2955C23.6274 39.2955 24.5352 40.2032 24.5352 41.3189V41.8182C24.5352 42.9339 23.6274 43.8416 22.5117 43.8416C21.396 43.8416 20.4883 42.934 20.4883 41.8182V41.3189ZM26.7031 51.5566H18.3203V49.4783C18.3203 47.1672 20.2006 45.2869 22.5117 45.2869C24.8228 45.2869 26.7031 47.1672 26.7031 49.4783V51.5566ZM50.5953 44.3601C51.2784 43.7261 51.707 42.8214 51.707 41.8183V41.319C51.707 39.4062 50.151 37.8502 48.2383 37.8502C46.3256 37.8502 44.7695 39.4062 44.7695 41.319V41.8183C44.7695 42.8215 45.1981 43.7261 45.8813 44.3601C43.9474 45.2542 42.6016 47.2115 42.6016 49.4783V52.2792C42.6016 52.6783 42.9252 53.0019 43.3242 53.0019H53.1523C53.5514 53.0019 53.875 52.6783 53.875 52.2792V49.4783C53.875 47.2115 52.5292 45.2542 50.5953 44.3601ZM46.2148 41.3189C46.2148 40.2032 47.1226 39.2955 48.2383 39.2955C49.354 39.2955 50.2617 40.2032 50.2617 41.3189V41.8182C50.2617 42.9339 49.354 43.8416 48.2383 43.8416C47.1226 43.8416 46.2148 42.934 46.2148 41.8182V41.3189ZM52.4297 51.5566H44.0469V49.4783C44.0469 47.1672 45.9272 45.2869 48.2383 45.2869C50.5494 45.2869 52.4297 47.1672 52.4297 49.4783V51.5566Z" fill="#0B5EB6"/>
<path d="M41.1195 16.0018H29.6305C29.2315 16.0018 28.9079 16.3254 28.9079 16.7245V18.7129C28.9079 20.2482 30.0111 21.53 31.4662 21.809C31.8573 23.3201 33.1056 24.489 34.6587 24.7664V26.1671H33.5237C33.1246 26.1671 32.801 26.4907 32.801 26.8898C32.801 27.2889 33.1246 27.6125 33.5237 27.6125H37.2391C37.6381 27.6125 37.9617 27.2889 37.9617 26.8898C37.9617 26.4907 37.6381 26.1671 37.2391 26.1671H36.104V24.764C37.6512 24.4826 38.8937 23.316 39.2837 21.809C40.7388 21.53 41.8421 20.2482 41.8421 18.7129V16.7245C41.8421 16.3254 41.5185 16.0018 41.1195 16.0018ZM31.3382 20.2601C30.7568 19.9874 30.3532 19.3964 30.3532 18.7129V17.4471H31.3382V20.2601ZM37.9665 20.7996H37.9664C37.9664 22.2252 36.8067 23.385 35.3811 23.385H35.3689C33.9433 23.385 32.7836 22.2252 32.7836 20.7996V17.4471H37.9665V20.7996ZM40.3968 18.7129C40.3968 19.3964 39.9932 19.9874 39.4118 20.2601V17.4471H40.3968V18.7129ZM50.5508 24.5292C50.1517 24.5292 49.8281 24.8527 49.8281 25.2518V26.1501C49.8281 26.5492 50.1517 26.8727 50.5508 26.8727C50.9498 26.8727 51.2734 26.5492 51.2734 26.1501V25.2518C51.2734 24.8527 50.9498 24.5292 50.5508 24.5292ZM50.5508 28.834C50.1517 28.834 49.8281 29.1576 49.8281 29.5567V30.455C49.8281 30.8541 50.1517 31.1776 50.5508 31.1776C50.9498 31.1776 51.2734 30.8541 51.2734 30.455V29.5567C51.2734 29.1576 50.9498 28.834 50.5508 28.834ZM53.1523 27.1307H52.2541C51.855 27.1307 51.5314 27.4543 51.5314 27.8534C51.5314 28.2525 51.855 28.576 52.2541 28.576H53.1523C53.5514 28.576 53.875 28.2525 53.875 27.8534C53.875 27.4543 53.5514 27.1307 53.1523 27.1307ZM48.8475 27.1307H47.9492C47.5502 27.1307 47.2266 27.4543 47.2266 27.8534C47.2266 28.2525 47.5502 28.576 47.9492 28.576H48.8475C49.2465 28.576 49.5701 28.2525 49.5701 27.8534C49.5701 27.4543 49.2465 27.1307 48.8475 27.1307ZM20.1992 17.3026C19.8002 17.3026 19.4766 17.6261 19.4766 18.0253V18.9235C19.4766 19.3227 19.8002 19.6462 20.1992 19.6462C20.5983 19.6462 20.9219 19.3227 20.9219 18.9235V18.0253C20.9219 17.6261 20.5983 17.3026 20.1992 17.3026ZM20.1992 21.6075C19.8002 21.6075 19.4766 21.931 19.4766 22.3301V23.2284C19.4766 23.6275 19.8002 23.951 20.1992 23.951C20.5983 23.951 20.9219 23.6275 20.9219 23.2284V22.3301C20.9219 21.931 20.5983 21.6075 20.1992 21.6075ZM22.8008 19.9042H21.9025C21.5035 19.9042 21.1799 20.2277 21.1799 20.6268C21.1799 21.026 21.5035 21.3495 21.9025 21.3495H22.8008C23.1998 21.3495 23.5234 21.026 23.5234 20.6268C23.5234 20.2277 23.1998 19.9042 22.8008 19.9042ZM18.4959 19.9042H17.5977C17.1986 19.9042 16.875 20.2277 16.875 20.6268C16.875 21.026 17.1986 21.3495 17.5977 21.3495H18.4959C18.895 21.3495 19.2186 21.026 19.2186 20.6268C19.2186 20.2277 18.895 19.9042 18.4959 19.9042Z" fill="#0B5EB6"/>
</g>
<defs>
<clipPath id="clip0_1004_2596">
<rect width="37" height="37" fill="white" transform="translate(16.875 16.0018)"/>
</clipPath>
</defs>
</svg>
