<svg width="45" height="45" viewBox="0 0 45 45" fill="none" xmlns="http://www.w3.org/2000/svg">
<g clip-path="url(#clip0_1014_13251)">
<path fill-rule="evenodd" clip-rule="evenodd" d="M26.7923 40.8433C26.7923 39.3225 25.5595 38.0897 24.0387 38.0897H20.6669C19.9366 38.0897 19.2362 38.3798 18.7198 38.8962C18.2034 39.4126 17.9133 40.113 17.9133 40.8433C17.9133 42.364 19.1461 43.5969 20.6669 43.5969H24.0387C25.5595 43.5969 26.7923 42.364 26.7923 40.8433ZM6.14162 33.7428C6.60156 33.778 7.158 33.7982 7.71694 33.7654C8.06728 35.5418 9.02342 37.1415 10.4221 38.2914C11.8208 39.4412 13.5752 40.0698 15.3858 40.0698H16.4365C16.3432 40.5812 16.3429 41.1052 16.4358 41.6167H15.3858C13.1607 41.6167 11.0083 40.8243 9.31433 39.3814C7.62038 37.9386 6.49562 35.9396 6.14162 33.7428ZM5.35478 32.0969C3.9563 31.8611 2.68657 31.1375 1.77089 30.0545C0.855209 28.9715 0.35279 27.5992 0.352783 26.181L0.352783 22.5249C0.352783 20.9338 0.984856 19.4078 2.10996 18.2827C3.23506 17.1576 4.76102 16.5255 6.35217 16.5254H6.75152C7.38986 8.46828 14.131 2.12842 22.3528 2.12842C30.5746 2.12842 37.3157 8.46828 37.954 16.5254H38.3534C39.9445 16.5255 41.4705 17.1576 42.5956 18.2827C43.7207 19.4078 44.3528 20.9338 44.3528 22.5249V26.181C44.3528 27.7721 43.7207 29.2981 42.5956 30.4232C41.4705 31.5483 39.9445 32.1804 38.3534 32.1804H36.583C35.8488 32.1804 35.2536 31.5851 35.2536 30.851V17.7792C35.2536 10.6543 29.4777 4.87842 22.3528 4.87842C15.2279 4.87842 9.45202 10.6543 9.45202 17.7792V30.851C9.45202 31.3693 9.15528 31.8185 8.72232 32.0378C7.53054 32.4513 5.68228 32.1521 5.35478 32.0969Z" fill="#F4A261"/>
</g>
<defs>
<clipPath id="clip0_1014_13251">
<rect width="44" height="44" fill="white" transform="translate(0.352783 0.862793)"/>
</clipPath>
</defs>
</svg>
