<svg width="60" height="60" viewBox="0 0 60 60" fill="none" xmlns="http://www.w3.org/2000/svg">
<circle cx="30" cy="30.0039" r="30" fill="#F4A261"/>
<path fill-rule="evenodd" clip-rule="evenodd" d="M15.4914 23.2263C15.4914 21.0785 17.2415 19.3374 19.4005 19.3374H40.249C42.4079 19.3374 44.158 21.0785 44.158 23.2263V38.7818C44.158 40.9297 42.4079 42.6707 40.249 42.6707H19.4005C17.2415 42.6707 15.4914 40.9297 15.4914 38.7818V23.2263ZM19.4005 40.0781C18.6808 40.0781 18.0974 39.4977 18.0974 38.7818V26.6199L28.0766 31.5837C29.177 32.1311 30.4724 32.1311 31.5728 31.5837L41.552 26.6199V38.7818C41.552 39.4977 40.9686 40.0781 40.249 40.0781H19.4005Z" fill="white"/>
</svg>
