<svg width="70" height="70" viewBox="0 0 70 70" fill="none" xmlns="http://www.w3.org/2000/svg">
<rect x="0.625" y="0.501831" width="68" height="69" rx="11.5" fill="#FDF7E6"/>
<rect x="0.625" y="0.501831" width="68" height="69" rx="11.5" stroke="#E8AD00"/>
<path d="M47.8532 44.0423H47.1674C48.2348 43.3998 48.9625 42.1352 48.9625 40.6834C48.9625 38.6606 47.5504 37.0021 45.7749 36.8822V28.8246H47.338C47.5006 28.8246 47.6487 28.7342 47.7231 28.5897C47.7976 28.4452 47.7853 28.2717 47.6906 28.1395L44.3303 23.4184C44.2486 23.3042 44.1171 23.2363 43.9769 23.2363C43.8367 23.2363 43.7052 23.3042 43.6235 23.4184L40.2624 28.1395C40.2164 28.2044 40.189 28.2807 40.1833 28.3601C40.1776 28.4394 40.1937 28.5188 40.2299 28.5897C40.3044 28.7342 40.4532 28.8246 40.6151 28.8246H42.1782V40.5901C42.1775 40.6212 42.176 40.6523 42.176 40.6841C42.176 40.7159 42.1775 40.7462 42.1782 40.778V40.8105H42.1789C42.2201 42.2089 42.9348 43.4193 43.9711 44.043H43.2853C42.5222 44.043 41.7901 44.2475 41.1434 44.6363C40.4951 43.7929 39.5766 43.1671 38.5179 42.8932L39.7674 41.6438C40.0796 41.3316 40.1309 40.8539 39.891 40.4825L38.9183 38.9764C38.9038 38.954 38.9031 38.9403 38.9147 38.9165C39.044 38.6476 39.1597 38.3694 39.2579 38.0897C39.2666 38.0644 39.2775 38.0558 39.3035 38.05L41.0552 37.6735C41.4873 37.5803 41.7887 37.2074 41.7887 36.7651V34.0985C41.7887 33.6562 41.4866 33.2834 41.0552 33.1901L39.3035 32.8136C39.2775 32.8078 39.2673 32.7985 39.2579 32.7739C39.1589 32.4922 39.0443 32.2162 38.9147 31.9472C38.9031 31.9233 38.9038 31.9089 38.9183 31.8865L39.891 30.3812C40.1309 30.0097 40.0803 29.5328 39.7674 29.2199L38.9017 28.3541V23.1727H40.4648C40.6274 23.1727 40.7755 23.0823 40.85 22.9378C40.9244 22.7933 40.9121 22.6198 40.8174 22.4876L37.4578 17.7679C37.3762 17.6537 37.2446 17.5858 37.1044 17.5858C36.9642 17.5858 36.8327 17.6537 36.7511 17.7679L33.39 22.489C33.3439 22.554 33.3166 22.6302 33.3108 22.7096C33.3051 22.789 33.3212 22.8684 33.3575 22.9393C33.4319 23.0838 33.5808 23.1741 33.7426 23.1741H35.3057V28.1265L35.2154 28.185C35.193 28.1995 35.1793 28.2002 35.1554 28.1886C34.8864 28.0591 34.6104 27.9445 34.3287 27.8454C34.3034 27.8367 34.2947 27.8259 34.289 27.7998L33.9125 26.0481C33.8192 25.616 33.4463 25.3146 33.0041 25.3146H30.3375C29.8952 25.3146 29.5223 25.6167 29.4291 26.0481L29.0526 27.7998C29.0468 27.8259 29.0374 27.836 29.0129 27.8446C28.7325 27.9429 28.4542 28.0585 28.1861 28.1879C28.1623 28.1995 28.1478 28.1987 28.1254 28.1843L26.6201 27.2116C26.2487 26.9717 25.7717 27.0223 25.4588 27.3352L23.5749 29.2206C23.262 29.5328 23.2114 30.0104 23.4513 30.3819L24.424 31.8872C24.4384 31.9096 24.4392 31.9233 24.4276 31.9472C24.2981 32.2162 24.1835 32.4922 24.0843 32.7739C24.0757 32.7992 24.0648 32.8078 24.0388 32.8136L22.2878 33.1901C21.8557 33.2826 21.5543 33.6562 21.5543 34.0985V36.7651C21.5543 37.0433 21.6736 37.2934 21.8701 37.4646C20.9198 38.1403 20.2875 39.3305 20.2875 40.6834C20.2875 42.1352 21.0152 43.3998 22.0826 44.0423H21.3968C19.0879 44.0423 17.209 45.9212 17.209 48.2301V51.9843C17.209 52.2235 17.4034 52.4178 17.6426 52.4178H51.6074C51.8466 52.4178 52.041 52.2235 52.041 51.9843V48.2301C52.041 45.9212 50.1621 44.0423 47.8532 44.0423ZM42.6125 27.9574H41.457L43.9769 24.4178L46.4975 27.9574H45.342C45.1028 27.9574 44.9084 28.1518 44.9084 28.391V36.9487C44.1756 37.112 43.5274 37.5405 43.0468 38.1418V28.391C43.0461 28.1511 42.8517 27.9574 42.6125 27.9574ZM43.0461 40.7809V40.5865C43.0902 39.0097 44.2053 37.7421 45.5696 37.7421C46.9622 37.7421 48.0953 39.0617 48.0953 40.6834C48.0953 42.305 46.9622 43.6246 45.5696 43.6246C44.2045 43.6253 43.0902 42.3577 43.0461 40.7809ZM39.1633 40.9522C39.1806 40.9789 39.1777 41.0071 39.1553 41.0295L37.4434 42.7415C37.3978 42.74 37.3523 42.7379 37.3061 42.7379H36.2076C37.2938 42.1952 38.1198 41.1119 38.4153 39.793L39.1633 40.9522ZM35.7415 34.5097C35.5441 33.6394 35.0733 32.8551 34.3981 32.2716C33.6401 31.6178 32.6725 31.2583 31.6715 31.2585C29.3706 31.2585 27.4982 33.1309 27.4982 35.4318C27.4982 37.4011 28.8886 39.0971 30.7819 39.509C30.8368 39.8465 30.925 40.171 31.0442 40.4767C28.5352 40.1667 26.5862 38.0233 26.5862 35.4318C26.5862 32.6279 28.8676 30.3465 31.6715 30.3465C34.3396 30.3465 36.5321 32.4118 36.7388 35.0278C36.4331 34.8053 36.0978 34.6297 35.7415 34.5097ZM30.7205 38.5985C29.3474 38.1859 28.3654 36.9053 28.3654 35.4318C28.3654 33.6086 29.8482 32.1257 31.6715 32.1257C33.106 32.1257 34.3367 33.0239 34.7912 34.3305C34.7363 34.3276 34.6806 34.3254 34.625 34.3254C32.5076 34.3261 30.779 36.2318 30.7205 38.5985ZM31.5855 38.7206C31.5855 36.7752 32.9492 35.1933 34.6257 35.1933C36.3023 35.1933 37.6659 36.776 37.6659 38.7206C37.6659 40.6653 36.3016 42.2486 34.625 42.2486C32.9484 42.2486 31.5855 40.666 31.5855 38.7206ZM35.7401 22.3069H34.5845L37.1052 18.7674L39.6258 22.3069H38.4703C38.2311 22.3069 38.0367 22.5013 38.0367 22.7405V27.4884L37.8835 27.3352C37.5713 27.0223 37.0936 26.9717 36.7221 27.2116L36.1744 27.5657V22.7405C36.1737 22.5006 35.9793 22.3069 35.7401 22.3069ZM21.1547 40.6834C21.1547 39.0617 22.2878 37.7421 23.6804 37.7421C25.0729 37.7421 26.2061 39.0617 26.2061 40.6834C26.2061 42.305 25.0729 43.6246 23.6804 43.6246C22.2878 43.6246 21.1547 42.3057 21.1547 40.6834ZM27.0732 40.6834C27.0732 38.5833 25.5513 36.875 23.6804 36.875C23.4578 36.875 23.241 36.8995 23.0307 36.9458L22.4706 36.8251C22.4396 36.8186 22.4222 36.7962 22.4222 36.7651V34.0985C22.4222 34.0667 22.4403 34.045 22.4706 34.0385L24.2216 33.662C24.5403 33.5934 24.7954 33.3686 24.9031 33.0615C24.9905 32.8122 25.0932 32.5643 25.2088 32.3244C25.3504 32.0303 25.3295 31.6906 25.1524 31.4167L24.1797 29.9114C24.1624 29.8847 24.1653 29.8565 24.1877 29.8341L26.0731 27.9487C26.0955 27.9263 26.1237 27.9234 26.1504 27.9408L27.6557 28.9135C27.9296 29.0905 28.2692 29.1115 28.5634 28.9698C28.8031 28.8541 29.0492 28.752 29.3005 28.6641C29.4509 28.6122 29.5854 28.5221 29.6906 28.4026C29.7959 28.2832 29.8684 28.1385 29.901 27.9827L30.2775 26.231C30.284 26.1999 30.3064 26.1825 30.3375 26.1825H33.0041C33.0359 26.1825 33.0576 26.2006 33.0641 26.231L33.4406 27.9827C33.5092 28.3014 33.734 28.5565 34.0411 28.6641C34.2904 28.7516 34.5383 28.8542 34.7782 28.9698C35.0723 29.1115 35.412 29.0905 35.6859 28.9135L37.1912 27.9408C37.2179 27.9234 37.2461 27.9263 37.2685 27.9487L39.1539 29.8341C39.1763 29.8565 39.1792 29.8847 39.1618 29.9114L38.1891 31.4167C38.0121 31.6906 37.9904 32.0303 38.1328 32.3244C38.2485 32.5641 38.3506 32.8102 38.4385 33.0615C38.5461 33.3694 38.8012 33.5934 39.1199 33.662L40.8716 34.0385C40.9027 34.045 40.9201 34.0674 40.9201 34.0985V36.7651C40.9201 36.7969 40.902 36.8186 40.8716 36.8251L39.1206 37.2016C38.8056 37.2695 38.5534 37.4899 38.4428 37.7927C38.3055 37.0759 38.0114 36.4233 37.6038 35.8827C37.6154 35.7324 37.6226 35.5821 37.6226 35.4318C37.6226 32.1495 34.9524 29.4793 31.6701 29.4793C28.3878 29.4793 25.7175 32.1495 25.7175 35.4318C25.7175 38.6621 28.3046 41.2976 31.5154 41.38C31.9121 41.9653 32.4368 42.4358 33.0417 42.7379H31.9432C30.3808 42.7379 28.9897 43.4829 28.1045 44.6356C27.4577 44.2468 26.7256 44.0423 25.9625 44.0423H25.2767C26.3455 43.3998 27.0732 42.1352 27.0732 40.6834ZM18.0762 48.2301C18.0762 46.3988 19.5656 44.9094 21.3968 44.9094H25.964C26.5609 44.9094 27.1339 45.067 27.642 45.3676C27.2892 46.0508 27.1053 46.8086 27.1058 47.5775V51.5507H26.9121V48.0364C26.9121 47.7972 26.7177 47.6028 26.4785 47.6028C26.2393 47.6028 26.0449 47.7972 26.0449 48.0364V51.5507H21.3166V48.0364C21.3166 47.7972 21.1222 47.6028 20.883 47.6028C20.6438 47.6028 20.4494 47.7972 20.4494 48.0364V51.5507H18.0762V48.2301ZM41.2778 51.5507H38.8287V47.3506C38.8287 47.1114 38.6343 46.917 38.3951 46.917C38.1559 46.917 37.9615 47.1114 37.9615 47.3506V51.5507H31.2885V47.3506C31.2885 47.1114 31.0941 46.917 30.8549 46.917C30.6157 46.917 30.4213 47.1114 30.4213 47.3506V51.5507H27.9722V47.5782C27.9722 45.3878 29.7543 43.6058 31.9447 43.6058H37.3046C39.495 43.6058 41.2771 45.3878 41.2771 47.5782V51.5507H41.2778ZM51.1738 51.5507H48.8013V48.0364C48.8013 47.7972 48.607 47.6028 48.3678 47.6028C48.1286 47.6028 47.9342 47.7972 47.9342 48.0364V51.5507H43.2058V48.0364C43.2058 47.7972 43.0114 47.6028 42.7722 47.6028C42.533 47.6028 42.3386 47.7972 42.3386 48.0364V51.5507H42.145V47.5782C42.145 46.7819 41.9506 46.031 41.6088 45.3683C42.1168 45.0677 42.6898 44.9102 43.286 44.9102H47.8532C49.6844 44.9102 51.1738 46.3996 51.1738 48.2308V51.5507Z" fill="#E8AD00"/>
</svg>
