<svg width="32" height="32" viewBox="0 0 32 32" fill="none" xmlns="http://www.w3.org/2000/svg">
<circle cx="16" cy="16" r="16" fill="white"/>
<path fill-rule="evenodd" clip-rule="evenodd" d="M15.5452 7.82275C17.2795 7.82275 18.6418 7.82274 19.7053 7.96572C20.7951 8.11225 21.6598 8.41865 22.3392 9.09806C23.0187 9.77747 23.325 10.6422 23.4716 11.732C23.6145 12.7956 23.6145 14.1578 23.6145 15.8921V15.9826C23.6145 17.7169 23.6145 19.0791 23.4716 20.1427C23.325 21.2325 23.0187 22.0972 22.3392 22.7766C21.6598 23.456 20.7951 23.7624 19.7053 23.9089C18.6418 24.0519 17.2795 24.0519 15.5452 24.0519H15.4547C13.7204 24.0519 12.3582 24.0519 11.2946 23.9089C10.2048 23.7624 9.34009 23.456 8.66068 22.7766C7.98128 22.0972 7.67487 21.2325 7.52834 20.1427C7.38536 19.0791 7.38537 17.7169 7.38538 15.9826V15.8921C7.38537 14.1578 7.38536 12.7956 7.52834 11.732C7.67487 10.6422 7.98128 9.77747 8.66068 9.09806C9.34009 8.41865 10.2048 8.11225 11.2946 7.96572C12.3582 7.82274 13.7204 7.82275 15.4547 7.82275H15.5452ZM19.0625 15.9373C19.0625 17.9049 17.4675 19.4998 15.5 19.4998C13.5324 19.4998 11.9375 17.9049 11.9375 15.9373C11.9375 13.9698 13.5324 12.3748 15.5 12.3748C17.4675 12.3748 19.0625 13.9698 19.0625 15.9373ZM19.8639 12.3748C20.2991 12.3748 20.652 12.0204 20.652 11.5832C20.652 11.1459 20.2991 10.7915 19.8639 10.7915H19.8567C19.4215 10.7915 19.0686 11.1459 19.0686 11.5832C19.0686 12.0204 19.4215 12.3748 19.8567 12.3748H19.8639Z" fill="black"/>
</svg>
