<svg width="32" height="32" viewBox="0 0 32 32" fill="none" xmlns="http://www.w3.org/2000/svg">
<circle cx="16" cy="16" r="16" fill="white"/>
<g clip-path="url(#clip0_1014_13562)">
<path d="M21.8174 7.92188L10.1811 7.92188C8.9761 7.92188 7.99927 8.89871 7.99927 10.1037L7.99927 21.7401C7.99927 22.945 8.9761 23.9219 10.1811 23.9219H21.8174C23.0224 23.9219 23.9993 22.945 23.9993 21.7401V10.1037C23.9993 8.89871 23.0224 7.92188 21.8174 7.92188Z" fill="black"/>
<path d="M13.7622 12.2855C13.7622 12.5552 13.6822 12.8189 13.5324 13.0431C13.3825 13.2674 13.1696 13.4421 12.9204 13.5453C12.6712 13.6486 12.397 13.6756 12.1325 13.6229C11.868 13.5703 11.625 13.4405 11.4343 13.2497C11.2436 13.059 11.1137 12.8161 11.0611 12.5515C11.0085 12.287 11.0355 12.0128 11.1387 11.7637C11.2419 11.5145 11.4167 11.3015 11.641 11.1517C11.8652 11.0019 12.1288 10.9219 12.3985 10.9219C12.7602 10.9219 13.1071 11.0655 13.3628 11.3213C13.6185 11.577 13.7622 11.9239 13.7622 12.2855ZM13.4531 14.5582V20.5828C13.4533 20.6272 13.4448 20.6713 13.4279 20.7124C13.4111 20.7535 13.3863 20.7909 13.355 20.8224C13.3236 20.854 13.2864 20.879 13.2453 20.896C13.2043 20.9131 13.1603 20.9219 13.1158 20.9219H11.6785C11.6341 20.922 11.5901 20.9133 11.549 20.8964C11.5079 20.8794 11.4706 20.8545 11.4392 20.8231C11.4077 20.7917 11.3828 20.7543 11.3659 20.7133C11.3489 20.6722 11.3402 20.6281 11.3404 20.5837V14.5582C11.3404 14.4685 11.376 14.3825 11.4394 14.3191C11.5028 14.2557 11.5889 14.2201 11.6785 14.2201H13.1158C13.2054 14.2203 13.2911 14.256 13.3544 14.3194C13.4176 14.3828 13.4531 14.4687 13.4531 14.5582ZM20.9658 17.6946V20.611C20.9659 20.6518 20.958 20.6923 20.9424 20.7301C20.9268 20.7679 20.9039 20.8022 20.875 20.8311C20.8461 20.86 20.8118 20.8829 20.774 20.8985C20.7363 20.914 20.6958 20.922 20.6549 20.9219H19.1095C19.0686 20.922 19.0281 20.914 18.9903 20.8985C18.9526 20.8829 18.9182 20.86 18.8893 20.8311C18.8605 20.8022 18.8376 20.7679 18.822 20.7301C18.8064 20.6923 18.7984 20.6518 18.7985 20.611V17.7846C18.7985 17.3628 18.9222 15.9373 17.6958 15.9373C16.7458 15.9373 16.5522 16.9128 16.514 17.351V20.611C16.514 20.6926 16.4819 20.771 16.4246 20.8292C16.3672 20.8874 16.2893 20.9207 16.2076 20.9219H14.7149C14.6741 20.9219 14.6337 20.9138 14.5961 20.8982C14.5584 20.8826 14.5242 20.8596 14.4954 20.8308C14.4666 20.8019 14.4438 20.7676 14.4282 20.7299C14.4127 20.6922 14.4048 20.6518 14.4049 20.611V14.5319C14.4048 14.4911 14.4127 14.4507 14.4282 14.413C14.4438 14.3752 14.4666 14.341 14.4954 14.3121C14.5242 14.2832 14.5584 14.2603 14.5961 14.2446C14.6337 14.229 14.6741 14.221 14.7149 14.221H16.2076C16.2901 14.221 16.3692 14.2537 16.4275 14.312C16.4858 14.3703 16.5185 14.4494 16.5185 14.5319V15.0573C16.8713 14.5282 17.394 14.1201 18.5095 14.1201C20.9804 14.1201 20.9658 16.4273 20.9658 17.6946Z" fill="white"/>
</g>
<defs>
<clipPath id="clip0_1014_13562">
<rect width="16" height="16" fill="white" transform="translate(8 7.92188)"/>
</clipPath>
</defs>
</svg>
