<svg width="60" height="60" viewBox="0 0 60 60" fill="none" xmlns="http://www.w3.org/2000/svg">
<circle cx="30" cy="30.0039" r="30" fill="#F4A261"/>
<path fill-rule="evenodd" clip-rule="evenodd" d="M27.1271 42.795C27.7083 43.1275 28.1941 43.3805 28.5372 43.5514L29.5 43.9973L30.4628 43.5514C30.8059 43.3805 31.2917 43.1275 31.8729 42.795C33.0328 42.1313 34.584 41.1441 36.1401 39.8514C39.2189 37.2942 42.5 33.3855 42.5 28.2879C42.5 21.1318 36.6797 15.3306 29.5 15.3306C22.3203 15.3306 16.5 21.1318 16.5 28.2879C16.5 33.3855 19.781 37.2942 22.8598 39.8514C24.416 41.1441 25.9672 42.1313 27.1271 42.795ZM29.5 22.9972C26.5545 22.9972 24.1667 25.385 24.1667 28.3306C24.1667 31.2761 26.5545 33.6639 29.5 33.6639C32.4455 33.6639 34.8333 31.2761 34.8333 28.3306C34.8333 25.385 32.4455 22.9972 29.5 22.9972Z" fill="white"/>
</svg>
