<svg width="35" height="34" viewBox="0 0 35 34" fill="none" xmlns="http://www.w3.org/2000/svg">
<path d="M24.856 27.0945C28.1945 24.4055 30.3334 20.2869 30.3334 15.6667C30.3334 7.56624 23.7672 1 15.6667 1C7.56624 1 1 7.56624 1 15.6667C1 23.7672 7.56624 30.3334 15.6667 30.3334C16.6771 30.3334 17.6638 30.2314 18.6182 30.036C20.2085 31.3513 22.9124 32.5632 27.3707 33C26.4363 31.6922 25.3276 29.2658 24.8572 27.0932L24.856 27.0945Z" fill="#3D3D3D" stroke="#0056B3" stroke-width="0.622157" stroke-miterlimit="10"/>
<path d="M1.41533 26.1054L1.38392 26.1031C1.2051 26.0752 1.11897 25.9313 1.12211 25.7842C1.12378 25.7061 1.15106 25.6303 1.20135 25.5742C1.25078 25.519 1.32512 25.4795 1.42844 25.4769L1.42851 25.4769C10.2638 25.237 16.7911 22.6346 21.1101 20.0911C23.2696 18.8195 24.8769 17.5626 25.9447 16.6232C26.4786 16.1536 26.8777 15.7632 27.1435 15.4901C27.2763 15.3535 27.3759 15.2462 27.4424 15.173C27.4756 15.1363 27.5006 15.1082 27.5173 15.0892L27.5361 15.0675L27.5409 15.0619L27.5421 15.0605L27.5425 15.0601C27.5426 15.06 27.5426 15.06 27.4952 15.0197L27.5426 15.06L27.5683 15.0297L27.5517 14.9937L25.8654 11.321L34.5259 12.6533L30.574 21.0487L28.9754 17.9019L28.9396 17.8314L28.8795 17.8829C19.5277 25.8921 8.30993 26.625 1.41533 26.1054Z" fill="#F4A261" stroke="#0056B3" stroke-width="0.124431"/>
<path d="M10.7765 22.5132C9.3307 22.884 7.78429 23.1942 6.13149 23.415V14.3627C6.13149 13.8508 6.54531 13.4382 7.05601 13.4382H9.85074C10.3626 13.4382 10.7753 13.852 10.7753 14.3627V14.4249H10.7765V22.5132Z" fill="#0056B3" stroke="#0056B3" stroke-width="0.124431"/>
<path d="M17.2781 10.7053L17.2793 10.704V20.2011C15.8952 20.8445 14.3465 21.4567 12.6343 21.9869V10.5551C12.6343 10.0432 13.0481 9.63054 13.5588 9.63054H16.3536C16.8654 9.63054 17.2781 10.0444 17.2781 10.5551V10.7053Z" fill="#0056B3" stroke="#0056B3" stroke-width="0.124431"/>
<path d="M19.1383 19.2683V7.11455C19.1383 6.60509 19.5523 6.19002 20.0629 6.19002H22.8576C23.3669 6.19002 23.7821 6.60634 23.7821 7.11455V7.14029L23.7833 7.14153V16.2351C22.6376 17.1397 21.0924 18.2155 19.1383 19.2683Z" fill="#0056B3" stroke="#0056B3" stroke-width="0.124431"/>
</svg>
