<svg width="128" height="42" viewBox="0 0 128 42" fill="none" xmlns="http://www.w3.org/2000/svg">
<g clip-path="url(#clip0_1114_360)">
<path d="M140.8 -59.3143H-12.8V97.0286H140.8V-59.3143Z" fill="white"/>
<path d="M140.8 0H-12.8V42H140.8V0Z" fill="white"/>
<path d="M29.9625 30.1585L39.4452 3.51508H46.0372L55.4825 30.1585H48.8905L47.2105 24.6051H38.2398L36.5545 30.1585H29.9625ZM39.7385 19.5022H45.7438L42.7785 9.66022H42.7038L39.7385 19.5022Z" fill="black"/>
<path d="M60.3492 30.4951C59.4705 30.4951 58.7332 30.2087 58.1359 29.6374C57.5385 29.066 57.2399 28.2952 57.2399 27.3248C57.2399 26.3802 57.5385 25.6175 58.1359 25.0339C58.7332 24.4517 59.4705 24.1599 60.3492 24.1599C61.2025 24.1599 61.9345 24.4517 62.5465 25.0339C63.1572 25.6175 63.4639 26.3802 63.4639 27.3248C63.4639 28.2952 63.1572 29.066 62.5465 29.6374C61.9345 30.2087 61.2025 30.4951 60.3492 30.4951Z" fill="black"/>
<path d="M77.6679 30.7557C75.3986 30.7557 73.3666 30.3893 71.5719 29.6591C69.7759 28.9249 68.3533 27.8555 67.3053 26.4508C66.2559 25.0475 65.7319 23.3647 65.7319 21.4023H72.3239C72.3239 22.3468 72.5666 23.1055 73.0546 23.6768C73.5413 24.2455 74.1866 24.654 74.9906 24.9037C75.7973 25.1534 76.6893 25.2783 77.6679 25.2783C78.8866 25.2783 79.8199 25.0611 80.4679 24.6268C81.1146 24.1898 81.4386 23.6361 81.4386 22.9657C81.4386 22.2464 81.1506 21.6873 80.5746 21.2883C80.0013 20.8906 79.2266 20.5432 78.2493 20.246C77.2746 19.9501 76.1653 19.6149 74.9213 19.2417C73.4306 18.7938 72.0386 18.2469 70.7453 17.6023C69.4546 16.9549 68.4173 16.1026 67.6359 15.0454C66.8533 13.9895 66.4626 12.6405 66.4626 11.0011C66.4626 9.06583 66.9133 7.5024 67.8173 6.31083C68.7199 5.11654 69.9346 4.2534 71.4599 3.7214C72.9853 3.18668 74.6879 2.91797 76.5693 2.91797C78.6199 2.91797 80.4693 3.2654 82.1159 3.96025C83.7613 4.65511 85.0839 5.64854 86.0839 6.94054C87.0866 8.23254 87.6119 9.78511 87.6626 11.5983H81.0706C80.9239 10.5818 80.4546 9.79461 79.6626 9.23683C78.8693 8.67633 77.8386 8.3954 76.5693 8.3954C75.5906 8.3954 74.7613 8.56368 74.0786 8.90025C73.3959 9.23411 73.0546 9.7729 73.0546 10.518C73.0546 11.3404 73.4679 11.9443 74.2973 12.3311C75.1293 12.7152 76.3626 13.1427 77.9986 13.6123C79.2426 13.9597 80.4573 14.3451 81.6413 14.7685C82.8253 15.1893 83.8986 15.7172 84.8626 16.3537C85.8253 16.9875 86.5933 17.7895 87.1666 18.7585C87.7426 19.7248 88.0306 20.9164 88.0306 22.3305C88.0306 24.8901 87.1199 26.934 85.2999 28.4648C83.4826 29.993 80.9386 30.7557 77.6679 30.7557Z" fill="black"/>
<path d="M93.7014 30.4951C92.8228 30.4951 92.0854 30.2087 91.4881 29.6374C90.8908 29.066 90.5921 28.2952 90.5921 27.3248C90.5921 26.3802 90.8908 25.6175 91.4881 25.0339C92.0854 24.4517 92.8228 24.1599 93.7014 24.1599C94.5548 24.1599 95.2868 24.4517 95.8988 25.0339C96.5094 25.6175 96.8161 26.3802 96.8161 27.3248C96.8161 28.2952 96.5094 29.066 95.8988 29.6374C95.2868 30.2087 94.5548 30.4951 93.7014 30.4951Z" fill="black"/>
<path d="M61.9153 33.4561C62.3766 33.4561 62.7553 33.5321 63.0513 33.6841C63.35 33.8361 63.566 34.0423 63.702 34.3029C63.8366 34.5608 63.894 34.8512 63.8726 35.1769L63.8673 35.2475H62.6033V35.1769C62.5886 34.6558 62.322 34.3952 61.8033 34.3952C61.558 34.3952 61.3286 34.4753 61.1153 34.6341C60.9046 34.7901 60.7366 35.0195 60.6086 35.3235C60.4806 35.6275 60.4166 36.0061 60.4166 36.4581C60.4166 36.7444 60.454 36.9738 60.5286 37.1475C60.6033 37.3212 60.7046 37.4461 60.8326 37.5221C60.9606 37.5981 61.0993 37.6361 61.2486 37.6361C61.4966 37.6361 61.71 37.5628 61.8886 37.4135C62.07 37.2656 62.21 37.0579 62.31 36.7892L62.3366 36.7132H63.6006L63.5793 36.7892C63.4193 37.3796 63.1206 37.8247 62.6833 38.1246C62.246 38.4259 61.7246 38.5752 61.1206 38.5752C60.718 38.5752 60.3646 38.4992 60.0593 38.3472C59.7566 38.1925 59.5206 37.9645 59.35 37.6632C59.1793 37.3592 59.094 36.9873 59.094 36.5449C59.094 36.0645 59.1686 35.6329 59.318 35.2529C59.47 34.8729 59.6766 34.5499 59.9366 34.2812C60.1993 34.0098 60.4993 33.8062 60.838 33.6678C61.1793 33.5266 61.538 33.4561 61.9153 33.4561Z" fill="black"/>
<path d="M67.0792 33.4561C67.5725 33.4561 67.9912 33.5483 68.3325 33.7329C68.6765 33.9175 68.9379 34.1713 69.1165 34.4929C69.2979 34.8159 69.3885 35.181 69.3885 35.5895C69.3885 36.0496 69.3152 36.4662 69.1699 36.8381C69.0272 37.2072 68.8259 37.5207 68.5672 37.7772C68.3112 38.0351 68.0125 38.2318 67.6712 38.3689C67.3299 38.506 66.9632 38.5752 66.5725 38.5752C66.0819 38.5752 65.6632 38.4829 65.3192 38.2983C64.9739 38.1138 64.7112 37.8613 64.5299 37.5383C64.3485 37.2126 64.2579 36.8489 64.2579 36.4472C64.2579 35.9803 64.3299 35.5623 64.4765 35.1932C64.6219 34.8241 64.8232 34.5119 65.0792 34.2541C65.3352 33.9976 65.6339 33.8008 65.9752 33.6623C66.3165 33.5253 66.6845 33.4561 67.0792 33.4561ZM66.6152 37.6361C66.8565 37.6361 67.0685 37.5763 67.2499 37.4569C67.4339 37.3348 67.5859 37.1746 67.7032 36.9792C67.8232 36.7811 67.9125 36.5612 67.9699 36.3223C68.0299 36.0835 68.0605 35.8501 68.0605 35.6221C68.0605 35.2638 67.9725 34.9706 67.7992 34.7426C67.6245 34.5119 67.3699 34.3952 67.0365 34.3952C66.7912 34.3952 66.5779 34.4576 66.3965 34.5798C66.2152 34.6992 66.0632 34.8593 65.9432 35.0575C65.8259 35.2529 65.7365 35.4701 65.6765 35.7089C65.6192 35.9478 65.5912 36.1812 65.5912 36.4092C65.5912 36.7716 65.6765 37.0661 65.8472 37.2941C66.0205 37.5221 66.2765 37.6361 66.6152 37.6361Z" fill="black"/>
<path d="M72.4182 37.2018H70.8982L70.2796 38.4775H68.9409L71.4956 33.5538H73.1276L73.9756 38.4775H72.5996L72.4182 37.2018ZM72.2796 36.2029L72.0769 34.7481L71.3729 36.2029H72.2796Z" fill="black"/>
<path d="M77.242 33.4561C77.7034 33.4561 78.082 33.5321 78.378 33.6841C78.6767 33.8361 78.8927 34.0423 79.0287 34.3029C79.1634 34.5608 79.2207 34.8512 79.1994 35.1769L79.194 35.2475H77.93V35.1769C77.9154 34.6558 77.6487 34.3952 77.13 34.3952C76.8847 34.3952 76.6554 34.4753 76.442 34.6341C76.2314 34.7901 76.0634 35.0195 75.9354 35.3235C75.8074 35.6275 75.7434 36.0061 75.7434 36.4581C75.7434 36.7444 75.7807 36.9738 75.8554 37.1475C75.93 37.3212 76.0314 37.4461 76.1594 37.5221C76.2874 37.5981 76.426 37.6361 76.5754 37.6361C76.8234 37.6361 77.0367 37.5628 77.2154 37.4135C77.3967 37.2656 77.5367 37.0579 77.6367 36.7892L77.6634 36.7132H78.9274L78.906 36.7892C78.746 37.3796 78.4474 37.8247 78.01 38.1246C77.5727 38.4259 77.0514 38.5752 76.4474 38.5752C76.0447 38.5752 75.6914 38.4992 75.386 38.3472C75.0834 38.1925 74.8474 37.9645 74.6767 37.6632C74.506 37.3592 74.4207 36.9873 74.4207 36.5449C74.4207 36.0645 74.4954 35.6329 74.6447 35.2529C74.7967 34.8729 75.0034 34.5499 75.2634 34.2812C75.526 34.0098 75.826 33.8062 76.1647 33.6678C76.506 33.5266 76.8647 33.4561 77.242 33.4561Z" fill="black"/>
<path d="M84.5926 33.5538L83.734 38.4775H82.4753L82.806 36.5666H80.87L80.5393 38.4775H79.2806L80.134 33.5538H81.3926L81.046 35.5678H82.9766L83.3286 33.5538H84.5926Z" fill="black"/>
<path d="M85.6575 38.4775H84.3989L85.2522 33.5538H86.5109L85.6575 38.4775Z" fill="black"/>
<path d="M91.8016 33.5538L90.9482 38.4775H89.3002L88.1429 35.2203L87.5829 38.4775H86.3242L87.1776 33.5538H88.7456L89.9616 36.9575L90.5429 33.5538H91.8016Z" fill="black"/>
<path d="M94.8692 33.4561C95.3305 33.4561 95.7039 33.5321 95.9892 33.6841C96.2732 33.8361 96.4772 34.0423 96.6025 34.3029C96.7305 34.5608 96.7812 34.8512 96.7572 35.1769L96.7519 35.2475H95.4932V35.1769C95.4785 34.6558 95.2119 34.3952 94.6932 34.3952C94.4439 34.3952 94.2079 34.4712 93.9839 34.6232C93.7625 34.7752 93.5812 35.0032 93.4399 35.3072C93.3012 35.6085 93.2319 35.9885 93.2319 36.4472C93.2319 36.7376 93.2705 36.9683 93.3492 37.1421C93.4305 37.3158 93.5385 37.4433 93.6745 37.5221C93.8092 37.5981 93.9585 37.6361 94.1225 37.6361C94.3705 37.6361 94.5879 37.5736 94.7732 37.4461C94.9572 37.3198 95.1159 37.1203 95.2479 36.8489H94.3039L94.4799 35.8501H96.6132L96.1545 38.4775H95.1732L95.1892 37.7121L94.8799 38.2658C94.7265 38.3825 94.5572 38.4612 94.3732 38.5046C94.1919 38.5508 93.9732 38.5752 93.7172 38.5752C93.1652 38.5752 92.7225 38.4069 92.3892 38.0703C92.0585 37.7338 91.8932 37.2425 91.8932 36.5938C91.8932 36.0808 91.9759 35.6302 92.1439 35.2421C92.3105 34.8512 92.5345 34.5241 92.8159 34.2595C93.0999 33.9921 93.4185 33.7913 93.7705 33.6569C94.1225 33.5239 94.4879 33.4561 94.8692 33.4561Z" fill="black"/>
<mask id="mask0_1114_360" style="mask-type:luminance" maskUnits="userSpaceOnUse" x="29" y="32" width="29" height="7">
<path d="M29.1813 32.3241H57.2467V38.7081H29.1813V32.3241Z" fill="white"/>
</mask>
<g mask="url(#mask0_1114_360)">
<path d="M29.1813 32.3241H57.236V38.7081H29.1813V32.3241Z" fill="black"/>
</g>
</g>
<defs>
<clipPath id="clip0_1114_360">
<rect width="128" height="42" fill="white"/>
</clipPath>
</defs>
</svg>
