<svg width="60" height="60" viewBox="0 0 60 60" fill="none" xmlns="http://www.w3.org/2000/svg">
<circle cx="30" cy="30.0039" r="30" fill="#F4A261"/>
<rect width="32" height="32" transform="translate(13.8247 14.0039)" fill="#F4A261"/>
<path fill-rule="evenodd" clip-rule="evenodd" d="M20.0024 18.3873C21.0914 17.2983 22.9273 17.5962 23.6161 18.9738L25.937 23.6156C26.3714 24.4843 26.2011 25.5335 25.5144 26.2203L21.7725 29.962C23.4577 33.1138 26.051 35.707 29.2026 37.3922L32.9444 33.6504C33.6313 32.9636 34.6804 32.7934 35.5491 33.2277L40.191 35.5487C41.5686 36.2374 41.8664 38.0733 40.7775 39.1623L39.1605 40.7793C38.5332 41.4065 37.6567 41.7922 36.7131 41.7469C26.2838 41.2464 17.9183 32.8809 17.4178 22.4516C17.3726 21.508 17.7583 20.6315 18.3855 20.0042L20.0024 18.3873Z" fill="white"/>
</svg>
