<?xml version="1.0" encoding="utf-8"?>
<!-- Generator: Adobe Illustrator 27.2.0, SVG Export Plug-In . SVG Version: 6.00 Build 0)  -->
<svg version="1.1" id="Layer_1" xmlns="http://www.w3.org/2000/svg" xmlns:xlink="http://www.w3.org/1999/xlink" x="0px" y="0px"
	 viewBox="0 0 400 116.5" style="enable-background:new 0 0 400 116.5;" xml:space="preserve">
<style type="text/css">
	.st0{fill:#0A3160;enable-background:new    ;}
	.st1{fill:#B57B46;enable-background:new    ;}
</style>
<g>
	<path class="st0" d="M1.9,44.3C1.4,21.4,21.7,0.3,46.5,1.6c23.3,1.2,41.4,20.7,41.4,43.7C88,68.3,66.7,88,43.5,87.4
		C21.5,86.9,0.9,67.5,1.9,44.3z M7.2,44.5c-0.6,21,17.1,37.9,37.4,37.9c20.2,0,37.9-16.2,37.9-37.3c0-21.3-16.9-38.3-38.2-38.3
		C23.9,6.7,7.2,23.7,7.2,44.5z"/>
	<path class="st0" d="M296.6,67.5c-0.5-1.6-0.3-2.6,1.6-2.8c2.6-0.2,3.4-2,3.4-4.4c0-5.8,0-11.5,0-17.3c-0.1-4.5-1.8-7-5.4-7.9
		c-3.5-0.9-9.7,1.7-11.4,4.9c-0.3,0.6-0.3,1.3-0.3,2c0,5.4,0,10.8,0,16.1c0,5.4,0,5.4,5.3,6.9c0,0.4,0.1,0.9,0.1,1.3
		c0,0.4-0.1,0.7-0.1,1.2c-6.4,0-12.7,0-19.1,0c0-0.8,0-1.5,0-2.2c0.2-0.1,0.3-0.3,0.4-0.3c4.8-1,4.9-1.2,4.9-6.1
		c0-6.5,0-12.9,0-19.4c0-3.5-0.3-3.8-3.9-4.9c-0.5-0.1-1.2-0.7-1.2-1c0-0.6,0.5-1.4,0.9-1.5c4.1-1.2,8.2-2.3,12.6-3.4
		c0,2.6,0,4.8,0,7.3c1.8-1.5,3.1-2.8,4.7-3.9c4.6-3.3,9.6-3.8,14.8-1.9c5.2,1.9,6.1,6.6,6.2,11.3c0.2,5.8,0.1,11.7,0.1,17.5
		c0,4.1,0.5,4.7,4.3,5.9c1.5,0.5,1.5,0.5,1.1,2.8C309.1,67.5,302.9,67.5,296.6,67.5z"/>
	<path class="st0" d="M190.8,64.1c-3.2,1.4-6.2,3.2-9.3,3.9c-5,1.2-9.9-1.2-11.3-4.7c-1.7-4.4,0.2-10.1,5-12.6
		c4.2-2.1,8.7-3.6,13.2-5c1.5-0.5,2.1-1,2-2.5c-0.1-1.3,0-2.6-0.1-4c-0.1-3.1-1.7-5.2-4.2-5.7c-2.5-0.5-5.3,1.1-6.6,3.8
		c-0.2,0.5-0.3,1-0.5,1.5c-0.4,1.1-0.5,3-1.2,3.3c-1.5,0.6-3.4,0.5-5,0.3c-1.7-0.2-1.3-1.7-1.1-2.8c1.1-5,4.4-8.1,9.1-9.8
		c3.2-1.2,6.6-1.2,9.9-0.3c5.8,1.5,8.4,5.1,8.5,12c0.1,5.5,0,10.9,0,16.4c0,0.7,0,1.4,0.1,2.1c0.4,3,1.1,3.6,4,3.5
		c0.6,0,1.2,0.5,1.8,0.7c-0.3,0.5-0.5,1.3-1,1.5c-1.9,0.9-3.9,2.1-6,2.4C193.6,68.7,192.7,68,190.8,64.1z M190.2,48.7
		c-2.3,0.8-4.4,1.3-6.3,2.2c-2.5,1.2-4.6,2.9-5.3,5.8c-0.7,2.9,1,5.9,3.8,6.5c2.9,0.6,7.6-2,7.7-4.5
		C190.4,55.6,190.2,52.4,190.2,48.7z"/>
	<path class="st0" d="M240.5,47.1c-0.7,6.2,2,12.6,6.6,14.8c5.8,2.8,10.9,1,15.2-3.3c2.5,1.4,2.7,1.8,1,3.8
		c-2.9,3.3-6.5,5.7-10.9,6.1c-13.8,1.2-22.5-7.3-20.9-21.6c0.7-6.1,3.3-11.4,8.6-14.9c5.6-3.8,11.7-4.1,17.7-1.1
		c4.8,2.4,5.8,7.2,6.3,12c0.1,0.5,0,1.1,0,1.6c0.2,1.9-0.5,2.6-2.5,2.6c-6.6-0.1-13.2,0-19.9,0C241.4,47,241,47,240.5,47.1z
		 M255.4,42.9c-0.5-6.6-2.7-10-6.4-9.9c-4.3,0.1-8.1,4.7-8.1,9.9C245.7,42.9,250.4,42.9,255.4,42.9z"/>
	<path class="st0" d="M102.2,56.2c2.4-0.8,3.5-0.2,4.2,2.2c1.5,5.5,6.3,7.8,11.4,5.8c3-1.2,3.7-6.2,1-8.5c-1.2-1-2.7-1.8-4.2-2.5
		c-1.9-1-4-1.7-5.9-2.8c-4.8-2.6-6.8-6.7-6-11.8c0.7-4.5,4.8-8.4,9.6-9.3c4.2-0.8,8.2-0.2,12.1,1.2c1.4,0.5,2.2,1.3,2.1,2.9
		c-0.1,2.6,0,5.1,0,7.8c-2,0.7-3,0.3-3.6-2c-1.2-5-5.3-7.3-9.6-5.7c-3.7,1.4-4.6,5.7-1.4,8.1c2,1.5,4.3,2.4,6.5,3.5
		c1.6,0.8,3.3,1.5,4.8,2.4c5.3,3.3,7,9.8,3.8,15.1c-2.2,3.6-5.9,5.5-9.9,5.8c-4.2,0.3-8.5-0.5-12.7-1c-1.6-0.2-2.3-1.2-2.3-3
		C102.3,61.7,102.2,59,102.2,56.2z"/>
	<path class="st0" d="M371.7,56c1.3,0,2.3,0,3.4,0c0.3,0.9,0.5,1.7,0.7,2.5c1.4,4.6,4.1,6.5,8.9,6c3.5-0.4,4.7-1.2,5.2-3.8
		c0.6-2.8-0.3-4.7-3.2-6.3c-2.7-1.4-5.5-2.6-8.2-4c-5.5-2.9-7.4-7.3-5.9-13.2c1-3.9,3.9-6.2,7.5-7.4c5.1-1.8,10.1-1,15,1.2
		c0.6,0.3,1.2,1.2,1.3,1.9c0.1,2.7,0.1,5.4,0.1,8.3c-2,0.5-3.3,0.6-3.9-2c-1.3-5-4.9-7.2-9.1-6c-1.9,0.6-3.4,1.5-3.8,3.7
		c-0.4,2.1,0.3,3.9,2.1,5c2.5,1.5,5.1,2.6,7.6,4.1c2.2,1.4,4.8,2.6,6.4,4.6c4.1,4.9,2.5,11.9-3.1,15.6c-4.4,2.9-9.2,2.8-14,2.2
		c-7.1-1-7-1.1-7-8.3C371.8,58.7,371.7,57.4,371.7,56z"/>
	<path class="st0" d="M226.4,67.5c-6.3,0-12.6,0-19,0c-0.7-1.6-0.3-2.4,1.5-2.8c3.5-0.8,3.8-1.4,3.8-5.2c0-12.9,0-25.9,0-38.8
		c0-5.4-0.3-5.8-5.4-6.8c-0.6-1.6-0.2-2.5,1.6-3c3.2-0.8,6.3-1.7,9.4-2.5c0.8-0.2,1.7-0.2,2.9-0.4c0,1,0,1.9,0,2.7c0,16,0,32,0,48
		c0,1.2,0,2.5,0.5,3.4c0.5,0.9,1.5,1.8,2.5,2.2C225.6,64.9,227.4,64.9,226.4,67.5z"/>
	<path class="st0" d="M163.9,59.4c0.5,0.3,0.8,0.6,1.2,0.9c0.3,0.3,0.5,0.6,0.8,0.9c-2.4,3.8-5.9,5.9-10.1,6.9
		c-8.5,2-18.3-2.6-21-10.8c-3.5-10.5,0.7-22.5,9.9-26.7c5.2-2.4,10.5-2.6,15.8-0.1c1.2,0.5,2.5,1.3,3.1,2.3c0.9,1.5,2.1,3.8,1.5,5
		c-0.6,1.3-3,1.8-4.7,2.5c-0.4,0.2-1.2-0.6-1.7-1c-0.4-0.4-0.5-0.9-0.7-1.4c-2.7-6.6-9.1-5-11.9-1.3c-3.2,4-3.8,8.8-3.3,13.7
		c0.1,1.2,0.4,2.5,0.7,3.6C146.6,64.8,157.2,65.5,163.9,59.4z"/>
	<path class="st0" d="M343,61.9c0.4,0.6,0.8,1.1,1.2,1.7c-3.4,2.6-6.5,5.1-11.1,5c-5.6-0.2-9-3.4-9-9.1c0-7.5,0-15,0-22.5
		c0-0.8,0-1.7,0-2.7c-1.5,0-2.7,0.1-3.9,0c-0.6-0.1-1.5-0.5-1.5-0.9c-0.1-0.6,0.3-1.4,0.6-2c0.2-0.4,0.7-0.6,1.1-0.8
		c4-2.3,6.7-5.7,9.1-9.5c0.5-0.9,1.6-1.4,2.4-2c0.3,1,0.8,2,0.9,3c0.1,2.6,0,5.1,0,7.9c3.6,0,7.1,0,10.7,0c0.1,0.8,0.1,1.4,0.1,2
		c0.2,1.8-0.5,2.5-2.4,2.4c-2.7-0.2-5.4,0-8.5,0c0,1.6,0,3.1,0,4.5c0,6,0,12,0.1,18c0.1,5.6,3.1,7.6,8.4,5.7
		C341.8,62.3,342.3,62.1,343,61.9z"/>
	<path class="st0" d="M366.6,65c0,0.9,0,1.6,0,2.5c-6.3,0-12.5,0-18.9,0c-0.5-1.5-0.4-2.6,1.5-2.8c2.6-0.3,3.4-2,3.4-4.4
		c0-7,0.1-14,0-21c0-3.4-0.3-3.6-3.6-4.6c-0.6-0.2-1.5-0.8-1.4-1.2c0.1-0.6,0.6-1.4,1.2-1.6c3.6-1.1,7.1-2.1,10.8-2.9
		c0.4-0.1,1.3,0.6,1.6,1.1c0.3,0.6,0.2,1.4,0.2,2.1c0,8.7,0,17.4,0,26.2C361.3,63.6,361.4,63.6,366.6,65z"/>
	<path class="st1" d="M126.8,103.4c-1.6-1.6-2.1-3.6-1-5.8c1.1-2.2,3.2-2.5,5.4-2.4c1.2,0.1,2.5,0.1,3.7,0.2c0.7,0.1,1.3,0.4,2,0.6
		c-0.3,0.7-0.6,1.4-0.8,2.1c-0.3-0.3-0.5-0.5-0.8-0.8c0.7,5.4-0.4,6.7-6.1,7.2c-0.5,0-1,0.5-1.5,0.7c0.5,0.4,0.9,1,1.5,1.1
		c1.6,0.3,3.3,0.1,4.8,0.6c1.1,0.4,2.4,1.4,2.7,2.4c0.3,1-0.2,2.6-0.9,3.5c-1.9,2.4-7.6,2.7-9.9,0.8c-1.3-1.1-2-2.5-1-4.1
		c0.8-1.2,1.4-2.2,1-3.8C125.5,105.2,126.4,104.3,126.8,103.4z M129.2,108.3c-1.6-0.3-2.6,0.6-2.7,2.4c-0.1,1.6,1.3,2.7,3.6,2.7
		c2.4,0,4.2-1.1,4.3-2.7C134.6,109.1,133.1,108.4,129.2,108.3z M130.3,96.8c-1.8,0.1-2.8,1.1-2.8,3c0,1.8,0.9,2.9,2.8,2.9
		c1.9,0,2.8-1,2.8-2.9C133.1,98,132.2,97,130.3,96.8z"/>
	<path class="st1" d="M102.3,108.7c0-5.9,0-11.5,0-17.3c4.6-0.1,9.4-1.4,12.6,3.2c2.2,3.1,2.1,6.7,0.3,9.9
		C112.3,109.7,107.2,108.8,102.3,108.7z M104.6,106.5c3.9,0.7,6.9-0.2,8.3-2.5c1.5-2.5,1.4-6.7-0.3-8.8c-1.5-1.9-4.7-2.6-8-1.6
		C104.6,97.9,104.6,102.2,104.6,106.5z"/>
	<path class="st0" d="M357,10.5c3,0,5.7,2.5,5.8,5.6c0.1,2.9-2.6,5.6-5.7,5.7c-3.2,0-5.7-2.4-5.7-5.5
		C351.4,13.3,354.1,10.5,357,10.5z"/>
	<path class="st1" d="M361,114.8c0-6.6,0-12.8,0-19.8c1,0.6,1.7,1,2.5,1.5c0.7-0.3,1.9-1.1,3.1-1.2c4.3-0.5,7,3.5,5.9,8.5
		c-1,4.7-4.4,6.2-9.4,4.1c-0.2,2.3-0.4,4.5-0.7,6.8C362.5,114.7,361.7,114.7,361,114.8z M370.4,101.5c0-0.2,0.1-0.6-0.1-1.1
		c-0.4-1.7-1.1-3.2-3.3-3.4c-2.2-0.1-3.4,1.2-3.7,3.1c-0.2,1.5-0.4,3.2,0.1,4.5c0.3,1,1.7,2,2.8,2.2
		C368.9,107.4,370.4,105.3,370.4,101.5z"/>
	<path class="st1" d="M308.6,108.7c0-5.9,0-11.4,0-17.5c3.3,0,6.5,0,9.7,0c0.3,0,0.6,0.7,0.9,1c-0.4,0.3-0.8,0.9-1.3,0.9
		c-2.3,0.1-4.5,0-7,0c0,1.9,0,3.6,0,5.5c2.1,0,4.3,0,6.4,0c0.7,1.4,0.5,2-1,2c-1.8,0-3.6,0-5.5,0c0,2,0,3.8,0,5.9c2.7,0,5.3,0,8.6,0
		c-0.5,1-0.7,1.9-1,2C315.3,108.8,312,108.7,308.6,108.7z"/>
	<path class="st1" d="M179.9,105.9c1.8,0.3,3.5,1,5.2,0.9c1.1-0.1,2.5-1,3-1.9c0.7-1.4-0.1-2.7-1.6-3.3c-1.3-0.5-2.6-1.1-3.8-1.7
		c-2.4-1.2-3.3-2.9-2.8-5.3c0.4-2.4,2.3-3.3,4.4-3.5c1.3-0.1,2.6,0.2,3.9,0.5c1.4,0.3,2,1.2,1.3,2.6c-1.2-0.4-2.5-1.1-3.7-1.1
		c-1.2,0.1-2.9,0.7-3.4,1.6c-0.8,1.5,0.4,2.8,1.9,3.4c1.1,0.5,2.1,0.9,3.2,1.4c2.2,0.9,3.3,2.5,3.1,4.9c-0.2,2.4-1.8,3.9-4,4.2
		c-1.7,0.3-3.5-0.1-5.3-0.4C179.9,108.1,179.4,107.1,179.9,105.9z"/>
	<path class="st1" d="M161.5,100c-0.1-3.1-1.1-3.5-7-1.9c0.3-0.9,0.5-1.9,0.8-1.9c2.1-0.3,4.3-0.8,6.3-0.4c2.1,0.4,2.4,2.6,2.4,4.6
		c0,2.7,0,5.4,0,9c-1.1-0.8-1.8-1.3-2.2-1.6c-1.6,0.4-3.1,1-4.7,1.1c-1.7,0.2-3-0.7-3.4-2.5c-0.4-1.8-0.1-3.6,1.7-4.4
		C157.3,101,159.4,100.6,161.5,100z M161.6,101.8c-1.9,0.6-3.5,0.9-5,1.6c-0.5,0.2-1,1.5-0.8,2.1c0.2,0.6,1.1,1.3,1.8,1.4
		C160.4,107.4,161.7,105.9,161.6,101.8z"/>
	<path class="st1" d="M351.7,95.2c3.7,0,6.1,2.7,6.1,6.8c0,4.2-2.6,7-6.5,6.9c-3.7,0-6.1-2.8-6.1-6.8
		C345.1,97.8,347.7,95.2,351.7,95.2z M355.4,102c0-3.1-1.5-5-4-5c-2.2,0-4,2.1-4,4.8c0,3.1,1.5,5,3.9,5
		C354,107,355.4,105.3,355.4,102z"/>
	<path class="st1" d="M205.1,102c0,4.3-2.6,7-6.5,6.9c-3.5-0.1-6.1-3.2-6-7.2c0.1-3.8,2.8-6.5,6.5-6.4
		C202.8,95.2,205.2,97.9,205.1,102z M202.8,101.9c0-3.2-1.3-4.9-4-4.9c-2.3,0-3.9,2-3.9,4.9c0,3.3,1.4,5,3.9,5
		C201.5,106.9,202.8,105.2,202.8,101.9z"/>
	<path class="st1" d="M386,102.5c-2.9,0-5.7,0-8.4,0c-0.3,4.2,2.2,5.3,8.3,3.9c-0.6,0.6-1,1.6-1.7,1.8c-2.3,0.9-4.7,1-6.8-0.6
		c-2.5-2-2.6-4.8-2.1-7.7c0.7-3.6,3.7-5.5,7.3-4.8C385.2,95.8,386.7,98.6,386,102.5z M383.9,100.5c0.1-2.5-0.8-3.5-2.9-3.5
		c-2.1,0-3.2,1.2-3.3,3.6c1.7,0,3.4,0,5.1,0C383.1,100.6,383.4,100.6,383.9,100.5z"/>
	<path class="st1" d="M249.6,108.8c-3.6,0-6.1-2.8-6.1-6.8c0-4.3,2.5-6.9,6.5-6.8c3.7,0,6,2.7,6.1,6.8
		C256.1,106.2,253.6,108.9,249.6,108.8z M253.8,101.9c0-3.2-1.4-4.9-4-4.8c-2.4,0-3.9,2-3.9,5c0,3.1,1.5,4.8,4.1,4.8
		C252.4,106.9,253.8,105.1,253.8,101.9z"/>
	<path class="st1" d="M214.5,95.6c1.9-0.5,2.3,0.2,2.3,1.7c-0.1,2.2,0,4.4,0,6.5c0,1.7,0.4,3.1,2.6,3.1c2,0,3.4-1.1,3.5-3.2
		c0.1-2.3,0-4.5,0.1-6.8c0-0.6,0.7-1.1,1.1-1.6c0.4,0.5,1.1,1,1.1,1.6c0.1,3.9,0.1,7.8,0.1,12.3c-1.1-0.6-1.9-1-2.5-1.3
		c-1.3,0.3-2.8,0.9-4.3,1c-2.3,0.1-3.8-1.4-3.8-3.8C214.4,101.9,214.5,98.8,214.5,95.6z"/>
	<path class="st1" d="M330,107.6c-1.4,1.4-3.5,1.8-5.5,0.8c-2.2-1-2.3-3.1-2.3-5.2c0-1.9,0.1-3.9,0-5.8c-0.1-1.5,0.4-2.2,2.3-1.7
		c0,2.5,0,5.2,0,7.8c0,1.9,0.2,3.5,2.7,3.4c2.1,0,3.4-1.3,3.4-3.6c0.1-2.6,0-5.1,0-7.8c0.8,0,1.5,0,2.2,0c0,4.4,0,8.6,0,13.5
		C331.8,108.5,331.1,108.2,330,107.6z"/>
	<path class="st1" d="M267.9,108.5c0-2.6,0-5.3,0-7.9c0-1.7-0.2-3.2-2.2-3.5c-1.7-0.3-3.7,0.9-3.9,2.9c-0.3,2.4-0.2,4.8-0.4,7.2
		c-0.1,0.7-0.7,1.2-1.1,1.9c-0.3-0.1-0.5-0.2-0.8-0.4c0-4.3,0-8.6,0-13.4c0.8,0.4,1.5,0.7,2.4,1.1c0.9-0.3,2.3-0.9,3.7-1.1
		c2.6-0.2,4.2,1.1,4.4,3.7c0.2,2.9,0.2,5.7,0.1,8.6c0,0.5-1.1,1-1.6,1.5C268.3,108.8,268.1,108.7,267.9,108.5z"/>
	<path class="st1" d="M273,106.2c2.2,0.3,3.9,0.7,5.5,0.6c0.7,0,1.7-0.8,1.9-1.5c0.2-0.4-0.6-1.5-1.2-1.9c-1.1-0.7-2.4-1-3.6-1.6
		c-1.5-0.7-2.7-1.8-2-3.4c0.5-1.2,1.6-2.5,2.7-2.9c1.3-0.5,2.9-0.3,4.3,0c0.7,0.2,1.2,1.2,2,2.1c-2.3-0.2-3.9-0.5-5.4-0.5
		c-0.6,0-1.5,0.8-1.6,1.3c-0.1,0.5,0.6,1.4,1.2,1.7c1.3,0.7,2.8,1,4.1,1.7c2.6,1.3,2.8,4.4,0.3,6c-2.1,1.4-4.4,1.4-6.7,0.4
		C273.9,108,273.6,107,273,106.2z"/>
	<path class="st1" d="M231.8,97.1c0,2.9,0,5.4,0,8c0.1,2.5,2.1,1.6,4,2c-0.4,0.7-0.7,1.5-1.1,1.7c-2.8,1-5.1-0.6-5.2-3.7
		c-0.1-2.5,0-5,0-7.4c-0.7-0.4-1.3-0.7-1.9-1.1c0.5-0.4,1.1-0.7,1.4-1.1c0.3-0.5,0.5-1.1,0.5-1.7c-0.1-1.5,0.5-2.2,2.2-2
		c0.1,1.2,0.1,2.4,0.2,3.5c3.4,0.4,3.4,0.4,3.4,1.9C234.3,97.1,233.2,97.1,231.8,97.1z"/>
	<path class="st1" d="M152,107.5c-0.5,0.4-1,1.2-1.6,1.3c-1.8,0.2-3.9,0.2-4.2-2.1c-0.3-2.7-0.2-5.4-0.3-8.1c0-0.3,0-0.6,0-1.1
		c-0.4-0.1-0.9-0.2-1.2-0.4c-0.3-0.2-0.6-0.6-0.7-0.9c0-0.1,0.5-0.6,0.7-0.6c1.7,0.1,1.2-1.1,1.4-2.1c0.2-0.7,0.7-1.3,1.1-2
		c0.3,0.1,0.5,0.2,0.8,0.3c0.1,1.1,0.1,2.2,0.2,3.6c1.1,0,2.2,0,3.3,0c0.2,1.6,0.2,1.6-3.4,2c0,2.6-0.1,5.2,0,7.8
		c0.1,2.3,1.9,1.7,3.3,1.8C151.6,107.1,151.8,107.3,152,107.5z"/>
	<path class="st1" d="M167.8,89.7c0.7,0,1.3,0,2.1,0c0,6.3,0,12.5,0,18.9c-0.7,0-1.3,0-2.1,0C167.8,102.4,167.8,96.2,167.8,89.7z"/>
	<path class="st1" d="M343.8,94.8c-0.1,1.3-0.1,1.9-0.2,2.5c-3.2-0.3-4.9,1.2-5,4.5c-0.1,2.2,0,4.5,0,6.7c-0.2,0.1-0.4,0.3-0.7,0.4
		c-0.3-0.5-1-1-1-1.6c-0.1-3.4-0.1-6.8-0.1-10.3c0-0.5,0.3-1.1,0.5-1.6c0.5,0.4,1.1,0.8,1.4,1C340.2,96,341.8,95.4,343.8,94.8z"/>
	<path class="st1" d="M210.3,89.9c0,6.2,0,12.4,0,18.6c-1.4,0.5-2.1,0.4-2.1-1.3c0-5.4,0-10.8,0.1-16.1c0-0.6,0.8-1.2,1.3-1.8
		C209.8,89.5,210.1,89.7,210.3,89.9z"/>
	<path class="st1" d="M238.5,108.6c0-4.4,0-8.6,0-13c1.4-0.4,2.3-0.4,2.2,1.5c-0.1,3.3-0.1,6.5,0,9.8
		C240.7,108.5,240.3,109.1,238.5,108.6z"/>
	<path class="st1" d="M141.4,108.6c-1.4,0.5-2,0.1-2-1.4c0-3.4-0.1-6.9,0-10.3c0-0.6,0.9-1.2,1.4-1.7c0.2,0.1,0.4,0.3,0.7,0.4
		C141.4,99.9,141.4,104.2,141.4,108.6z"/>
	<path class="st1" d="M121.9,95.7c0,3.9,0.1,7.7-0.1,11.6c0,0.6-0.8,1.2-1.3,1.8c-0.3-0.1-0.6-0.3-1-0.4c0-4-0.1-8,0.1-12
		c0-0.5,1-1,1.5-1.5C121.5,95.3,121.7,95.5,121.9,95.7z"/>
	<path class="st1" d="M297.2,100.7c-0.9,0.7-1.5,1.5-2,1.4c-0.6-0.1-1.5-0.9-1.5-1.4c0-0.6,0.8-1.6,1.4-1.6
		C295.6,99,296.2,99.9,297.2,100.7z"/>
	<path class="st1" d="M122.9,91.6c-1,0.7-1.6,1.4-2.3,1.5c-0.3,0-1.1-1-1.1-1.5c0-0.5,0.8-1.3,1.3-1.4
		C121.4,90.1,121.9,90.9,122.9,91.6z"/>
	<path class="st1" d="M239.5,89.4c0.7,1.1,1.4,1.7,1.3,2.2c0,0.6-0.8,1.1-1.2,1.6c-0.5-0.5-1.5-0.9-1.5-1.4
		C238.1,91.2,238.8,90.5,239.5,89.4z"/>
	<path class="st1" d="M142.5,91.8c-1,0.6-1.6,1.2-2.2,1.2c-0.4,0-1.1-0.9-1.1-1.3c0.1-0.6,0.8-1.4,1.3-1.4
		C141,90.2,141.5,91,142.5,91.8z"/>
	<path class="st0" d="M56,33.9c-1.2-2.6-2-5.1-3.3-7.2c-2.2-3.6-7-4.9-10.9-3.3c-4.5,1.8-5.7,7.4-2.2,10.7c1.6,1.5,3.7,2.5,5.7,3.5
		c4.4,2.2,9.2,3.8,12.8,7.5c4.6,4.8,5.2,13.4,0.8,18.4c-3.3,3.8-7.8,5.8-12.9,6.3c-5.3,0.5-10.5-0.3-15.5-2.3
		c-1.4-0.6-2.3-1.4-2.2-3.1c0.1-3.9,0-7.7,0-11.7c1,0,2,0,3.2,0c0.3,1.2,0.7,2.5,1,3.9C34.6,66,42.8,67,49.7,63.9
		c3.3-1.5,4-7.7,1-10.4c-1.9-1.7-4.4-2.9-6.6-4.2c-3.2-1.8-6.8-3.1-9.8-5.2c-7.2-5-7.2-15.7-0.7-21.5c6.3-5.7,17.8-4.8,23.5-1.5
		c0.8,0.5,1.4,1.7,1.6,2.7c0.3,2.4,0.4,4.8,0.5,7.2C59.2,34.3,59.1,34.3,56,33.9z"/>
</g>
</svg>
