<svg width="32" height="32" viewBox="0 0 32 32" fill="none" xmlns="http://www.w3.org/2000/svg">
<circle cx="16" cy="16" r="16" fill="white"/>
<path fill-rule="evenodd" clip-rule="evenodd" d="M9.40647 10.1342C9.52044 9.91126 9.74969 9.771 10 9.771H13.3334C13.5474 9.771 13.7485 9.8738 13.8738 10.0473L17.0499 14.445L21.5286 9.96626C21.789 9.70591 22.2111 9.70591 22.4714 9.96626C22.7318 10.2266 22.7318 10.6487 22.4714 10.9091L17.8406 15.5399L22.5405 22.0473C22.6871 22.2503 22.7076 22.5183 22.5936 22.7412C22.4796 22.9641 22.2504 23.1043 22 23.1043H18.6667C18.4526 23.1043 18.2516 23.0015 18.1262 22.828L14.9502 18.4303L10.4714 22.9091C10.2111 23.1694 9.78899 23.1694 9.52864 22.9091C9.26829 22.6487 9.26829 22.2266 9.52864 21.9663L14.1594 17.3355L9.45959 10.828C9.31301 10.625 9.29249 10.3571 9.40647 10.1342Z" fill="black"/>
</svg>
