<svg width="70" height="70" viewBox="0 0 70 70" fill="none" xmlns="http://www.w3.org/2000/svg">
<rect x="1.375" y="0.501831" width="68" height="69" rx="11.5" fill="#FDEAEA"/>
<rect x="1.375" y="0.501831" width="68" height="69" rx="11.5" stroke="#E62E2E"/>
<path d="M52.5406 18.2628H51.7592C51.8624 17.9279 52.016 17.33 51.6693 16.8569C51.5192 16.6521 51.227 16.4081 50.6868 16.4081H48.596C48.1853 16.4081 47.8523 16.7411 47.8523 17.1518C47.8523 17.5625 48.1853 17.8956 48.596 17.8956H50.3156C49.8565 19.3508 49.8441 19.7359 49.8032 21.0063C49.7993 21.1278 49.7951 21.2581 49.7902 21.3994C49.7899 21.4079 49.7897 21.4165 49.7897 21.4252C49.7897 23.4232 49.5218 24.8591 48.9704 25.8148C48.3498 26.8909 47.355 27.392 45.84 27.392C44.325 27.392 43.3302 26.8909 42.7096 25.8148C42.1583 24.8591 41.8903 23.4233 41.8903 21.4252C41.8903 21.4165 41.8902 21.408 41.8899 21.3994C41.885 21.2581 41.8807 21.1275 41.8769 21.006C41.836 19.7357 41.8236 19.3506 41.3644 17.8956H46.1049C46.5157 17.8956 46.8487 17.5625 46.8487 17.1518C46.8487 16.7411 46.5157 16.4081 46.1049 16.4081H40.9932C40.453 16.4081 40.1608 16.6521 40.0107 16.8569C39.6641 17.33 39.8176 17.9279 39.9208 18.2628H39.1394C38.4036 18.2628 37.8051 18.8615 37.8051 19.5973V22.516C37.8051 24.3813 39.2853 25.9068 41.1327 25.9811C41.2208 26.1833 41.3162 26.3762 41.4211 26.558C42.0096 27.5782 42.8608 28.265 43.9621 28.6127V30.1616H43.307C42.2715 30.1616 41.4291 31.004 41.4291 32.0395V33.1737C41.4291 33.5844 41.762 33.9174 42.1728 33.9174H49.5073C49.918 33.9174 50.251 33.5844 50.251 33.1737V32.0395C50.251 31.004 49.4086 30.1616 48.3731 30.1616H47.718V28.6127C48.8193 28.265 49.6704 27.5782 50.259 26.558C50.3638 26.3762 50.4593 26.1833 50.5474 25.9811C52.3948 25.9068 53.875 24.3813 53.875 22.516V19.5973C53.875 18.8614 53.2764 18.2628 52.5406 18.2628ZM39.2926 22.5161V19.7503H40.3082C40.3595 20.1038 40.3712 20.4622 40.3902 21.0538C40.394 21.1728 40.3981 21.3003 40.4028 21.4382C40.4034 22.579 40.4842 23.5551 40.6506 24.3962C39.8627 24.1344 39.2926 23.3908 39.2926 22.5161ZM48.7635 32.0396V32.43H42.9166V32.0396C42.9166 31.8279 43.0954 31.6492 43.307 31.6492H48.3731C48.5848 31.6492 48.7635 31.8279 48.7635 32.0396ZM46.2305 30.1617H45.4495V28.8695C45.7097 28.8828 45.9703 28.8828 46.2305 28.8695V30.1617ZM52.3874 22.5161C52.3874 23.3908 51.8173 24.1345 51.0294 24.3963C51.1959 23.5551 51.2766 22.579 51.2772 21.438C51.2819 21.3004 51.286 21.173 51.2898 21.0541C51.3088 20.4623 51.3205 20.1039 51.3718 19.7504H52.3874V22.5162L52.3874 22.5161ZM50.8383 35.6878C50.8383 36.0985 50.5053 36.4315 50.0945 36.4315H42.5656V41.4091C42.5656 41.8198 42.2326 42.1528 41.8218 42.1528H34.4979V47.1304C34.4979 47.5411 34.1649 47.8742 33.7541 47.8742H26.4301V52.8518C26.4301 53.2625 26.0972 53.5955 25.6864 53.5955H17.6187C17.208 53.5955 16.875 53.2625 16.875 52.8518C16.875 52.4411 17.208 52.108 17.6187 52.108H24.9427V47.1304C24.9427 46.7197 25.2757 46.3867 25.6865 46.3867H33.0104V41.4091C33.0104 40.9984 33.3434 40.6653 33.7542 40.6653H41.0782V35.6878C41.0782 35.2771 41.4111 34.944 41.8219 34.944H50.0946C50.5054 34.944 50.8383 35.2771 50.8383 35.6878ZM18.0418 48.8651C17.7514 48.5746 17.7514 48.1037 18.0418 47.8132L26.1829 39.672L25.2631 39.764C24.8544 39.805 24.4899 39.5066 24.4491 39.0979C24.4082 38.6893 24.7064 38.3247 25.1151 38.2839L28.1082 37.9846C28.2178 37.9736 28.3285 37.9872 28.4322 38.0242C28.536 38.0612 28.6302 38.1208 28.7081 38.1987C28.786 38.2766 28.8456 38.3708 28.8827 38.4746C28.9197 38.5784 28.9332 38.689 28.9222 38.7987L28.6229 41.7916C28.5821 42.2004 28.2176 42.4994 27.8089 42.4577C27.4002 42.4168 27.102 42.0523 27.1429 41.6436L27.2349 40.7238L19.0936 48.8651C18.9484 49.0102 18.758 49.0829 18.5677 49.0829C18.3774 49.0829 18.187 49.0102 18.0418 48.8651ZM50.6205 42.7113C50.6984 42.7892 50.758 42.8834 50.7951 42.9872C50.8321 43.0909 50.8456 43.2016 50.8346 43.3112L50.5354 46.3042C50.4945 46.7129 50.1302 47.0121 49.7213 46.9702C49.3126 46.9293 49.0144 46.5649 49.0553 46.1562L49.1473 45.2363L41.0061 53.3776C40.8609 53.5228 40.6705 53.5954 40.4802 53.5954C40.2899 53.5954 40.0995 53.5228 39.9543 53.3776C39.6639 53.0872 39.6639 52.6162 39.9543 52.3257L48.0954 44.1846L47.1756 44.2765C46.7673 44.3181 46.4024 44.0192 46.3616 43.6105C46.3207 43.2018 46.6189 42.8373 47.0276 42.7964L50.0206 42.4972C50.1302 42.4862 50.2409 42.4998 50.3446 42.5368C50.4484 42.5738 50.5426 42.6334 50.6205 42.7113ZM25.8305 24.1709L25.2767 27.0651C25.1896 27.5194 25.3681 27.9707 25.7425 28.2429C26.1167 28.5147 26.601 28.5451 27.0064 28.3219L29.5878 26.9007L32.1693 28.3219C32.3441 28.4188 32.5406 28.4699 32.7404 28.4702C32.9837 28.4702 33.2254 28.3937 33.4332 28.2427C33.8074 27.9707 33.9859 27.5195 33.899 27.0651L33.345 24.1709L35.4945 22.1549C35.8318 21.8383 35.9526 21.3684 35.8097 20.9284C35.6667 20.4884 35.2927 20.1793 34.8337 20.1215L31.9098 19.7541L30.6568 17.087C30.46 16.6682 30.0504 16.4082 29.5877 16.4082C29.125 16.4082 28.7154 16.6683 28.5187 17.087L27.2656 19.7541L24.3418 20.1216C23.8827 20.1793 23.5087 20.4885 23.3656 20.9287C23.2228 21.3687 23.3436 21.8386 23.681 22.1551L25.8304 24.1709H25.8305ZM27.8575 21.1789C27.9819 21.1633 28.1004 21.1164 28.2019 21.0427C28.3034 20.9689 28.3845 20.8707 28.4379 20.7572L29.5878 18.3096L30.7377 20.7572C30.791 20.8707 30.8722 20.9689 30.9737 21.0427C31.0752 21.1164 31.1937 21.1633 31.3181 21.1789L34.0013 21.5161L32.0288 23.3661C31.9373 23.452 31.869 23.5595 31.8302 23.6788C31.7915 23.7981 31.7835 23.9252 31.8071 24.0484L32.3154 26.7044L29.9464 25.4003C29.8366 25.3397 29.7132 25.308 29.5877 25.308C29.4623 25.308 29.3389 25.3397 29.229 25.4003L26.8601 26.7044L27.3684 24.0484C27.3919 23.9252 27.384 23.7981 27.3452 23.6788C27.3064 23.5595 27.2382 23.4519 27.1467 23.3661L25.1742 21.5161L27.8575 21.1789Z" fill="#E62E2E"/>
</svg>
